<svg id="Layer_1" data-name="Layer 1" xmlns="http://www.w3.org/2000/svg" viewBox="0 0 149.79 90.44"><defs><style>.cls-1{fill:#ffee95;}.cls-2{fill:#231f20;}</style></defs><circle class="cls-1" cx="40.54" cy="44.91" r="25.64"/><circle cx="40.54" cy="44.91" r="6.45"/><path class="cls-2" d="M58.88,40.9v7.75l-2.52,2.52H48V38.38h8.38Zm-2.82,1-1-1H50.81v7.75H55l1-1Z"/><path class="cls-2" d="M68.3,48.69H63.15l-.89,2.48H59.37l5-12.79h2.84l5,12.79h-3Zm-.9-2.52-1.67-4.69-1.68,4.69Z"/><path class="cls-2" d="M84,48.69H78.86L78,51.17H75.08l5-12.79h2.84l5,12.79h-3Zm-.9-2.52-1.67-4.69-1.68,4.69Z"/><path class="cls-2" d="M99.72,48.65v2.52H90.17V38.38H93V48.65Z"/><path class="cls-2" d="M106.7,40.9v7.75H109v2.52h-7.41V48.65h2.29V40.9h-2.29V38.38H109V40.9Z"/><path class="cls-2" d="M122,40.9v7.75l-2.52,2.52h-8.37V38.38h8.37Zm-2.82,1-1-1H114v7.75h4.21l1-1Z"/><path class="cls-2" d="M132,48.69h-5.15l-.89,2.48H123l5-12.79h2.84l5,12.79h-3Zm-.9-2.52-1.68-4.69-1.67,4.69Z"/></svg>